<?xml version="1.0" encoding="UTF-8"?>
<svg version="1.1" xmlns="http://www.w3.org/2000/svg" width="434" height="434">
<path d="M0 0 C11.04356563 6.74778967 15.75626557 18.67157077 19.20703125 30.60546875 C20.32257757 35.37752799 20.53400392 39.92765407 20.5 44.82421875 C20.49379639 45.98566406 20.48759277 47.14710937 20.48120117 48.34375 C20.4732251 49.22417969 20.46524902 50.10460938 20.45703125 51.01171875 C21.76897461 50.98553467 23.08091797 50.95935059 24.43261719 50.93237305 C29.30028223 50.84187028 34.16787295 50.78446881 39.03613281 50.73706055 C41.14303086 50.71191663 43.24984168 50.67779668 45.35644531 50.63452148 C48.38498445 50.57386507 51.41237055 50.54550792 54.44140625 50.5234375 C55.85410797 50.48472786 55.85410797 50.48472786 57.29534912 50.44523621 C61.41426918 50.44346978 63.68885823 50.44308617 67.05859375 52.9375 C69.02680849 57.26427374 68.95631581 60.98802706 68.84765625 65.6875 C68.84199646 66.61265915 68.83633667 67.5378183 68.83050537 68.49101257 C68.80817605 71.43594861 68.75798611 74.37965261 68.70703125 77.32421875 C68.68696179 79.32485218 68.6687118 81.32550474 68.65234375 83.32617188 C68.6083225 88.22182639 68.53931872 93.11656393 68.45703125 98.01171875 C69.52646973 98.06360352 70.5959082 98.11548828 71.69775391 98.16894531 C73.13055286 98.2463939 74.56333182 98.32421323 75.99609375 98.40234375 C77.0480896 98.45189209 77.0480896 98.45189209 78.12133789 98.50244141 C88.55028652 99.09219153 102.8847461 101.82029081 110.14453125 109.88671875 C110.70140625 110.52609375 111.25828125 111.16546875 111.83203125 111.82421875 C116.21030886 116.05594313 121.21115626 115.53870123 126.95703125 115.44921875 C130.12825111 115.35751215 133.29120446 115.21749749 136.45703125 115.01171875 C135.13703125 114.02171875 133.81703125 113.03171875 132.45703125 112.01171875 C133.11703125 110.69171875 133.77703125 109.37171875 134.45703125 108.01171875 C138.45703125 108.01171875 138.45703125 108.01171875 141.20703125 110.38671875 C143.45703125 113.01171875 143.45703125 113.01171875 143.45703125 115.01171875 C154.34703125 115.50671875 154.34703125 115.50671875 165.45703125 116.01171875 C166.11703125 114.36171875 166.77703125 112.71171875 167.45703125 111.01171875 C170.3262573 107.921783 173.43437774 107.31524574 177.49609375 106.9453125 C181.37870404 107.07679532 183.50725191 109.16019244 186.26953125 111.63671875 C188.14482046 115.38729716 188.22841477 118.91418613 187.45703125 123.01171875 C186.05513427 125.64900388 184.72600924 126.95380848 182.45703125 129.01171875 C181.46703125 129.01171875 180.47703125 129.01171875 179.45703125 129.01171875 C179.45703125 166.96171875 179.45703125 204.91171875 179.45703125 244.01171875 C180.77703125 244.34171875 182.09703125 244.67171875 183.45703125 245.01171875 C183.45703125 246.33171875 183.45703125 247.65171875 183.45703125 249.01171875 C182.96807373 249.49294189 182.47911621 249.97416504 181.9753418 250.4699707 C180.25515545 251.91701931 180.25515545 251.91701931 180.11645508 254.18823242 C180.13216553 255.0104126 180.14787598 255.83259277 180.1640625 256.6796875 C180.17373047 257.57236328 180.18339844 258.46503906 180.19335938 259.38476562 C180.23106445 260.77791992 180.23106445 260.77791992 180.26953125 262.19921875 C180.28983398 263.60977539 180.28983398 263.60977539 180.31054688 265.04882812 C180.34590029 267.37036913 180.39524451 269.69075528 180.45703125 272.01171875 C190.5178528 261.01519441 194.33918754 246.99389886 195.24609375 232.2890625 C195.45703125 230.01171875 195.45703125 230.01171875 196.45703125 227.01171875 C202.64999095 226.88811817 208.84223284 226.79737821 215.03613281 226.73706055 C217.14303086 226.71191663 219.24984168 226.67779668 221.35644531 226.63452148 C224.38498445 226.57386507 227.41237055 226.54550792 230.44140625 226.5234375 C231.85410797 226.48472786 231.85410797 226.48472786 233.29534912 226.44523621 C234.17596008 226.44485855 235.05657104 226.4444809 235.96386719 226.4440918 C236.73664001 226.43298874 237.50941284 226.42188568 238.30560303 226.41044617 C241.58562102 227.32713252 242.59649302 229.22775606 244.45703125 232.01171875 C244.96318913 234.8618927 244.96318913 234.8618927 244.97169495 238.04614258 C244.9844194 239.25742828 244.99714386 240.46871399 245.01025391 241.71670532 C245.00407211 243.05072218 244.99746613 244.38473712 244.99047852 245.71875 C244.99753933 247.13008526 245.00628503 248.54141294 245.0165863 249.95272827 C245.03907089 253.77921646 245.03614316 257.60529086 245.02726483 261.43181992 C245.022152 264.62776016 245.02944978 267.82362284 245.03673691 271.01955509 C245.05373252 278.55900424 245.05017307 286.09825096 245.03344727 293.63769531 C245.01651955 301.41376927 245.03236978 309.18928214 245.06467015 316.96529484 C245.09136408 323.64486626 245.09864283 330.324263 245.09015507 337.00388241 C245.08522601 340.99194227 245.08744013 344.97966441 245.10794258 348.96768188 C245.1262974 352.71735136 245.1203447 356.46621332 245.09574318 360.21583939 C245.0907348 361.59086326 245.094226 362.96594865 245.10689163 364.34092331 C245.2059774 376.02277495 245.2059774 376.02277495 242.19403076 379.33293152 C239.46668356 381.00579833 238.18081566 381.62688166 235.03393555 381.5793457 C234.19344162 381.57896805 233.35294769 381.57859039 232.48698425 381.57820129 C231.59409195 381.55239487 230.70119965 381.52658844 229.78125 381.5 C228.85609085 381.49292526 227.9309317 381.48585052 226.97773743 381.4785614 C224.03250122 381.4506469 221.08918952 381.38791432 218.14453125 381.32421875 C216.14390773 381.29913205 214.14325431 381.27631953 212.14257812 381.25585938 C207.24665809 381.20082983 202.35217057 381.11457776 197.45703125 381.01171875 C197.37811646 382.39496338 197.37811646 382.39496338 197.29760742 383.80615234 C196.30408186 399.56431373 193.07822966 416.39052034 181.45703125 428.01171875 C175.13502282 432.69000499 170.18733999 433.80545581 162.45703125 433.01171875 C155.77108085 431.1372648 151.27486948 426.64885548 147.45703125 421.01171875 C141.61797698 410.52609312 138.56183012 400.07584808 137.8828125 388.12890625 C137.84047485 387.44111084 137.79813721 386.75331543 137.7545166 386.04467773 C137.65177174 384.36724037 137.55389347 382.68950608 137.45703125 381.01171875 C136.21091064 381.03266602 134.96479004 381.05361328 133.6809082 381.07519531 C129.04984058 381.14769226 124.41882295 381.19355388 119.78735352 381.23144531 C117.78433797 381.25153866 115.78138093 381.2788184 113.77856445 381.31347656 C110.89650017 381.36209486 108.01521259 381.38471027 105.1328125 381.40234375 C104.2399202 381.42298889 103.34702789 381.44363403 102.42707825 381.46490479 C98.55598428 381.46629629 95.94079059 381.231777 92.3828125 379.61328125 C89.40651257 375.59255963 89.83521871 371.86929546 89.96875 366.99609375 C89.97936211 365.53964447 89.97936211 365.53964447 89.9901886 364.05377197 C90.01815492 360.95563381 90.08089857 357.85930967 90.14453125 354.76171875 C90.16961118 352.66018237 90.19242488 350.55861763 90.21289062 348.45703125 C90.26798918 343.30789588 90.35427832 338.16011475 90.45703125 333.01171875 C93.24742864 332.08158629 95.73706112 331.74681692 98.64819336 331.46777344 C112.04762571 330.12671795 125.63012328 326.83862672 135.45703125 317.01171875 C123.64234441 315.70052622 123.64234441 315.70052622 112.546875 318.6171875 C111.15495921 320.00389986 109.80715729 321.43635034 108.5078125 322.91015625 C100.74407785 330.86613576 85.66547135 332.9146045 75.07421875 333.58984375 C73.20805908 333.71214355 73.20805908 333.71214355 71.30419922 333.83691406 C70.36463379 333.89459961 69.42506836 333.95228516 68.45703125 334.01171875 C68.48321533 335.25783936 68.50939941 336.50395996 68.53637695 337.7878418 C68.62699685 342.41884346 68.68432353 347.04976705 68.73168945 351.68139648 C68.75680675 353.68446031 68.7909072 355.68743273 68.83422852 357.69018555 C68.89500313 360.57233241 68.92326857 363.45326596 68.9453125 366.3359375 C68.97111893 367.2288298 68.99692535 368.12172211 69.02351379 369.04167175 C69.02389145 369.88216568 69.0242691 370.72265961 69.0246582 371.58862305 C69.03576126 372.32364548 69.04686432 373.05866791 69.05830383 373.81596375 C68.35212526 376.39481928 67.38764988 378.2003958 65.39644337 380.01201916 C60.66392596 382.45146753 54.84399966 381.69034477 49.64233398 381.64282227 C48.21952421 381.6479628 46.79672081 381.65524509 45.37393188 381.664505 C41.5164042 381.6830091 37.65956825 381.67008801 33.80206943 381.65041471 C29.76403936 381.63402157 25.72605288 381.64284187 21.68800354 381.64793396 C14.90818233 381.65245368 8.12863713 381.63659155 1.34887695 381.60864258 C-6.48964756 381.57657813 -14.32767466 381.57661169 -22.16623455 381.59385735 C-29.70814029 381.60971908 -37.24986364 381.60299206 -44.7917614 381.58592033 C-48.00104565 381.57904752 -51.21018381 381.58008455 -54.41946602 381.58746529 C-58.1977969 381.59512475 -61.97556136 381.58301395 -65.75379562 381.55561638 C-67.14051443 381.54872826 -68.52728611 381.54863923 -69.91400337 381.55583191 C-71.80628631 381.56451618 -73.69863591 381.546145 -75.59083557 381.52638245 C-76.64993417 381.52357553 -77.70903276 381.5207686 -78.80022526 381.51787663 C-82.32113423 380.86811269 -83.48194062 379.92075509 -85.54296875 377.01171875 C-86.04633331 374.25056458 -86.04633331 374.25056458 -86.05090332 371.01489258 C-86.06218262 369.78670807 -86.07346191 368.55852356 -86.08508301 367.29312134 C-86.07730606 365.9349952 -86.0691134 364.57687139 -86.06054688 363.21875 C-86.06596794 361.78623747 -86.07309051 360.35373052 -86.08178711 358.92123413 C-86.10002568 355.03275769 -86.09295099 351.14470565 -86.08027077 347.25622177 C-86.07014576 343.1874858 -86.07953505 339.11878623 -86.08581543 335.05004883 C-86.09309331 328.21721877 -86.08350053 321.38456162 -86.06445312 314.55175781 C-86.042684 306.65135115 -86.04973528 298.75135739 -86.07175875 290.85096073 C-86.08990882 284.06867214 -86.09247303 277.28650787 -86.08200407 270.50420284 C-86.07576693 266.4530606 -86.07493942 262.40211245 -86.08815002 258.35098267 C-86.09970233 254.54232067 -86.09169481 250.73419115 -86.068573 246.9255867 C-86.06328249 245.52757273 -86.06480562 244.12951396 -86.07362366 242.73151779 C-86.08454726 240.82387641 -86.0684221 238.91613714 -86.05090332 237.00854492 C-86.04939522 235.94077316 -86.04788712 234.8730014 -86.04633331 233.77287292 C-85.41918277 230.33270357 -84.25504638 229.14908081 -81.54296875 227.01171875 C-79.42950439 226.53070068 -79.42950439 226.53070068 -77.14160156 226.55761719 C-75.85071625 226.55807037 -75.85071625 226.55807037 -74.53375244 226.55853271 C-73.15386139 226.58950043 -73.15386139 226.58950043 -71.74609375 226.62109375 C-70.79732361 226.62675354 -69.84855347 226.63241333 -68.87103271 226.63824463 C-65.84449539 226.66061266 -62.81914746 226.71081017 -59.79296875 226.76171875 C-57.73960045 226.78178318 -55.68621356 226.80003405 -53.6328125 226.81640625 C-48.60240719 226.86047894 -43.57288954 226.92950984 -38.54296875 227.01171875 C-38.54813507 226.40712326 -38.55330139 225.80252777 -38.55862427 225.17961121 C-38.56465164 223.9792498 -38.56465164 223.9792498 -38.57080078 222.75463867 C-38.5759671 221.96441818 -38.58113342 221.17419769 -38.5864563 220.36003113 C-38.38485326 209.47353803 -35.28439466 193.75314466 -27.375 185.84375 C-26.64667969 185.19792969 -25.91835937 184.55210937 -25.16796875 183.88671875 C-21.21597288 179.97228938 -21.07361515 176.57246313 -20.99365234 171.25634766 C-21.06552086 167.16553491 -21.23704195 163.0917233 -21.54296875 159.01171875 C-32.4865249 170.90785616 -35.36490384 185.1170525 -37.0769043 200.75463867 C-37.16481735 201.55487961 -37.25273041 202.35512054 -37.3433075 203.17961121 C-37.40919571 203.7842067 -37.47508392 204.38880219 -37.54296875 205.01171875 C-43.57522814 205.11071436 -49.60701302 205.18324782 -55.63989258 205.23144531 C-57.69140868 205.25154074 -59.74286764 205.27882199 -61.79418945 205.31347656 C-64.745749 205.36208544 -67.69655023 205.38470827 -70.6484375 205.40234375 C-71.56320358 205.42298889 -72.47796967 205.44363403 -73.42045593 205.46490479 C-77.34263336 205.46628185 -80.02487574 205.24635164 -83.63085938 203.61328125 C-86.58822586 199.58957118 -86.16457993 195.86194689 -86.03125 190.99609375 C-86.02417526 190.02512756 -86.01710052 189.05416138 -86.0098114 188.05377197 C-85.98184508 184.95563381 -85.91910143 181.85930967 -85.85546875 178.76171875 C-85.83038882 176.66018237 -85.80757512 174.55861763 -85.78710938 172.45703125 C-85.73201082 167.30789588 -85.64572168 162.16011475 -85.54296875 157.01171875 C-86.8103186 157.03999756 -86.8103186 157.03999756 -88.10327148 157.06884766 C-103.7222125 157.27084064 -120.41276267 153.70906023 -132.140625 142.5546875 C-137.33855204 136.83551987 -138.15868475 132.42689569 -137.85546875 124.80859375 C-137.18479603 118.80607292 -134.14046038 114.86726986 -129.87890625 110.8125 C-118.65722201 102.16166985 -103.89015915 97.92824655 -89.8359375 97.9921875 C-89.03051514 97.99500732 -88.22509277 97.99782715 -87.39526367 98.00073242 C-86.78400635 98.00435791 -86.17274902 98.0079834 -85.54296875 98.01171875 C-85.56391602 96.73006836 -85.58486328 95.44841797 -85.60644531 94.12792969 C-85.67885541 89.37202124 -85.72477235 84.61616151 -85.76269531 79.85986328 C-85.78280844 77.8015117 -85.81010272 75.74321723 -85.84472656 73.68505859 C-85.89325758 70.72609362 -85.91594041 67.76788414 -85.93359375 64.80859375 C-85.95423889 63.88866638 -85.97488403 62.96873901 -85.99615479 62.02093506 C-85.9974682 58.27971926 -85.94081801 55.74083391 -84.13085938 52.42382812 C-80.08873975 50.2182036 -76.27517421 50.51945148 -71.74609375 50.62109375 C-70.79732361 50.62675354 -69.84855347 50.63241333 -68.87103271 50.63824463 C-65.84449539 50.66061266 -62.81914746 50.71081017 -59.79296875 50.76171875 C-57.73960045 50.78178318 -55.68621356 50.80003405 -53.6328125 50.81640625 C-48.60240719 50.86047894 -43.57288954 50.92950984 -38.54296875 51.01171875 C-38.54854294 50.407939 -38.55411713 49.80415924 -38.55986023 49.18208313 C-38.56636345 47.98267342 -38.56636345 47.98267342 -38.57299805 46.7590332 C-38.57857224 45.96962845 -38.58414642 45.18022369 -38.58988953 44.36689758 C-38.29966495 29.79913381 -33.24667472 14.49272862 -22.7109375 4.2265625 C-16.2693267 -1.50986144 -8.32024428 -3.23352043 0 0 Z M120.45703125 124.01171875 C120.28892944 125.18577271 120.28892944 125.18577271 120.11743164 126.38354492 C118.87647318 134.70852327 116.27433009 140.15729671 109.68359375 145.5 C97.18718354 153.98440482 83.15548834 155.91909275 68.45703125 157.01171875 C68.41944702 158.88875488 68.41944702 158.88875488 68.38110352 160.80371094 C68.28690562 165.44802018 68.18671506 170.09218418 68.0847168 174.73632812 C68.04141481 176.74605918 67.99973637 178.7558259 67.9597168 180.765625 C67.9018996 183.65505723 67.83823801 186.54431073 67.7734375 189.43359375 C67.75672501 190.33164734 67.74001251 191.22970093 67.72279358 192.15496826 C67.70284836 192.99553772 67.68290314 193.83610718 67.66235352 194.70214844 C67.64680923 195.43939148 67.63126495 196.17663452 67.61524963 196.93621826 C67.45343977 199.05883161 67.03292977 200.96585131 66.45703125 203.01171875 C63.60263165 203.8178864 61.01797071 204.15605235 58.05566406 204.21704102 C56.76477875 204.24695885 56.76477875 204.24695885 55.44781494 204.27748108 C54.52788757 204.29419357 53.60796021 204.31090607 52.66015625 204.328125 C51.23700104 204.35929665 51.23700104 204.35929665 49.78509521 204.39109802 C46.75914643 204.45639809 43.73311205 204.51538763 40.70703125 204.57421875 C38.65363704 204.61742255 36.60025143 204.66103744 34.546875 204.70507812 C29.51701445 204.81205948 24.48706793 204.91338198 19.45703125 205.01171875 C19.47588379 204.16681885 19.49473633 203.32191895 19.51416016 202.45141602 C19.70904656 187.38198538 16.37984285 172.69168744 6.95703125 160.51171875 C3.49120161 157.04588911 0.11966085 154.56592862 -4.54296875 153.01171875 C-7.51296875 153.01171875 -10.48296875 153.01171875 -13.54296875 153.01171875 C-13.54296875 160.27171875 -13.54296875 167.53171875 -13.54296875 175.01171875 C-11.54234375 175.23859375 -9.54171875 175.46546875 -7.48046875 175.69921875 C-0.0776768 176.88623198 3.73091384 178.46020971 8.2890625 184.3984375 C15.86281342 195.57569938 19.03888442 207.50295101 20.0078125 220.83203125 C20.09329346 221.99234863 20.17877441 223.15266602 20.2668457 224.34814453 C20.32960693 225.22712402 20.39236816 226.10610352 20.45703125 227.01171875 C22.37950684 227.0257373 22.37950684 227.0257373 24.34082031 227.04003906 C29.09719567 227.07991936 33.85292287 227.1456729 38.60888672 227.21923828 C40.66707023 227.24745924 42.72536235 227.26866816 44.78369141 227.28271484 C47.7430791 227.30412865 50.70115945 227.35077096 53.66015625 227.40234375 C55.0400473 227.40418671 55.0400473 227.40418671 56.44781494 227.40606689 C60.17748921 227.49152459 62.74401725 227.61301517 66.03125 229.45117188 C68.23140704 233.4024128 68.06031194 237.13530259 68.06640625 241.58984375 C68.0829425 242.51641785 68.09947876 243.44299194 68.11651611 244.39764404 C68.16503851 247.35240275 68.18637649 250.30664664 68.20703125 253.26171875 C68.23518738 255.26695304 68.2651143 257.27216331 68.296875 259.27734375 C68.3707987 264.18875971 68.42034749 269.09988916 68.45703125 274.01171875 C69.02819672 274.09310593 69.59936218 274.1744931 70.18783569 274.25834656 C72.80685523 274.63404773 75.42489653 275.01619302 78.04296875 275.3984375 C78.94136475 275.52633667 79.83976074 275.65423584 80.76538086 275.78601074 C93.50498108 277.65879605 107.01885099 281.58808431 115.45703125 292.01171875 C118.8245808 297.31503658 119.80926092 301.81255667 120.45703125 308.01171875 C123.93618066 308.04059689 127.41529956 308.05847562 130.89453125 308.07421875 C131.88775391 308.08259766 132.88097656 308.09097656 133.90429688 308.09960938 C134.84853516 308.10283203 135.79277344 308.10605469 136.765625 308.109375 C137.64017334 308.11461182 138.51472168 308.11984863 139.41577148 308.12524414 C141.45143331 308.23956684 141.45143331 308.23956684 142.45703125 307.01171875 C142.77276404 300.86179306 141.04274968 296.07449785 137.44921875 291.1484375 C127.31528084 280.27929233 111.94519372 276.32633984 97.65625 275.4609375 C96.96253296 275.41690796 96.26881592 275.37287842 95.55407715 275.32751465 C93.85520211 275.22000943 92.15613448 275.11555506 90.45703125 275.01171875 C90.52580155 268.79997449 90.61371629 262.58891026 90.71948242 256.37768555 C90.75276253 254.26415539 90.78078478 252.15053569 90.8034668 250.03686523 C90.83695597 247.00075069 90.88926889 243.965459 90.9453125 240.9296875 C90.95170242 239.98272507 90.95809235 239.03576263 90.9646759 238.06010437 C90.98447006 237.17941788 91.00426422 236.29873138 91.0246582 235.39135742 C91.03576126 234.61636398 91.04686432 233.84137054 91.05830383 233.04289246 C91.5704499 230.43394816 92.30646326 229.55479524 94.45703125 228.01171875 C96.48820496 227.61299133 96.48820496 227.61299133 98.83666992 227.5793457 C99.71735641 227.55955154 100.59804291 227.53975739 101.50541687 227.5193634 C102.4523793 227.51297348 103.39934174 227.50658356 104.375 227.5 C105.34738113 227.4820488 106.31976227 227.4640976 107.3216095 227.44560242 C110.42920589 227.39139408 113.53664777 227.35756977 116.64453125 227.32421875 C118.75067259 227.29105499 120.85679352 227.25656622 122.96289062 227.22070312 C128.12749286 227.13566144 133.29204844 227.06890034 138.45703125 227.01171875 C138.53594604 228.50106934 138.53594604 228.50106934 138.61645508 230.02050781 C139.40786285 243.91355003 141.75251912 256.10106877 149.45703125 268.01171875 C149.83472656 268.61628906 150.21242188 269.22085938 150.6015625 269.84375 C154.01306059 274.60538161 159.09655908 277.02509009 164.45703125 279.01171875 C167.83821444 279.52053006 167.83821444 279.52053006 170.45703125 279.01171875 C171.68487934 278.00612081 171.68487934 278.00612081 171.57055664 275.97045898 C171.56531982 275.09591064 171.56008301 274.2213623 171.5546875 273.3203125 C171.55146484 272.37607422 171.54824219 271.43183594 171.54492188 270.45898438 C171.53654297 269.46576172 171.52816406 268.47253906 171.51953125 267.44921875 C171.51276367 265.95358398 171.51276367 265.95358398 171.50585938 264.42773438 C171.49403132 261.95567026 171.47754974 259.48372357 171.45703125 257.01171875 C168.81703125 256.68171875 166.17703125 256.35171875 163.45703125 256.01171875 C163.45703125 254.36171875 163.45703125 252.71171875 163.45703125 251.01171875 C166.09703125 251.34171875 168.73703125 251.67171875 171.45703125 252.01171875 C171.57380813 235.91327056 171.66199144 219.81495965 171.71609211 203.71619034 C171.74187919 196.24131364 171.77703883 188.76670003 171.83422852 181.29199219 C171.88404868 174.77737941 171.91631862 168.26295715 171.92747372 161.74815917 C171.93399504 158.29817736 171.94933093 154.8487406 171.98568153 151.39893341 C172.02592244 147.54872892 172.02698156 143.69905874 172.0246582 139.84863281 C172.04263458 138.70352234 172.06061096 137.55841187 172.07913208 136.37860107 C172.18320418 130.28269403 172.18320418 130.28269403 169.06604004 125.30029297 C166.36419302 123.96586649 164.79980667 123.53980649 161.8125 123.62109375 C160.97138672 123.63398437 160.13027344 123.646875 159.26367188 123.66015625 C157.96719727 123.71042969 157.96719727 123.71042969 156.64453125 123.76171875 C155.31905273 123.78878906 155.31905273 123.78878906 153.96679688 123.81640625 C151.79640582 123.86333362 149.62657606 123.93507144 147.45703125 124.01171875 C147.45703125 126.98171875 147.45703125 129.95171875 147.45703125 133.01171875 C145.80703125 132.68171875 144.15703125 132.35171875 142.45703125 132.01171875 C142.47765625 130.87734375 142.49828125 129.74296875 142.51953125 128.57421875 C142.87280602 125.19596201 142.87280602 125.19596201 141.45703125 124.01171875 C139.8953038 123.92486272 138.32973781 123.90469656 136.765625 123.9140625 C135.34926758 123.91889648 135.34926758 123.91889648 133.90429688 123.92382812 C132.41446289 123.93639648 132.41446289 123.93639648 130.89453125 123.94921875 C129.89744141 123.95373047 128.90035156 123.95824219 127.87304688 123.96289062 C125.40098276 123.97471868 122.92903607 123.99120026 120.45703125 124.01171875 Z " fill="#51CDB4" transform="translate(152.54296875,0.98828125)"/>
<path d="M0 0 C11.04356563 6.74778967 15.75626557 18.67157077 19.20703125 30.60546875 C20.32257757 35.37752799 20.53400392 39.92765407 20.5 44.82421875 C20.49379639 45.98566406 20.48759277 47.14710937 20.48120117 48.34375 C20.4732251 49.22417969 20.46524902 50.10460938 20.45703125 51.01171875 C21.76897461 50.98553467 23.08091797 50.95935059 24.43261719 50.93237305 C29.30028223 50.84187028 34.16787295 50.78446881 39.03613281 50.73706055 C41.14303086 50.71191663 43.24984168 50.67779668 45.35644531 50.63452148 C48.38498445 50.57386507 51.41237055 50.54550792 54.44140625 50.5234375 C55.85410797 50.48472786 55.85410797 50.48472786 57.29534912 50.44523621 C61.41426918 50.44346978 63.68885823 50.44308617 67.05859375 52.9375 C69.02680849 57.26427374 68.95631581 60.98802706 68.84765625 65.6875 C68.84199646 66.61265915 68.83633667 67.5378183 68.83050537 68.49101257 C68.80817605 71.43594861 68.75798611 74.37965261 68.70703125 77.32421875 C68.68696179 79.32485218 68.6687118 81.32550474 68.65234375 83.32617188 C68.6083225 88.22182639 68.53931872 93.11656393 68.45703125 98.01171875 C69.52646973 98.06360352 70.5959082 98.11548828 71.69775391 98.16894531 C73.13055286 98.2463939 74.56333182 98.32421323 75.99609375 98.40234375 C77.0480896 98.45189209 77.0480896 98.45189209 78.12133789 98.50244141 C88.55028652 99.09219153 102.8847461 101.82029081 110.14453125 109.88671875 C110.70140625 110.52609375 111.25828125 111.16546875 111.83203125 111.82421875 C116.21030886 116.05594313 121.21115626 115.53870123 126.95703125 115.44921875 C130.12825111 115.35751215 133.29120446 115.21749749 136.45703125 115.01171875 C135.13703125 114.02171875 133.81703125 113.03171875 132.45703125 112.01171875 C133.11703125 110.69171875 133.77703125 109.37171875 134.45703125 108.01171875 C138.45703125 108.01171875 138.45703125 108.01171875 141.20703125 110.38671875 C143.45703125 113.01171875 143.45703125 113.01171875 143.45703125 115.01171875 C154.34703125 115.50671875 154.34703125 115.50671875 165.45703125 116.01171875 C166.11703125 114.36171875 166.77703125 112.71171875 167.45703125 111.01171875 C170.3262573 107.921783 173.43437774 107.31524574 177.49609375 106.9453125 C181.37870404 107.07679532 183.50725191 109.16019244 186.26953125 111.63671875 C188.14482046 115.38729716 188.22841477 118.91418613 187.45703125 123.01171875 C186.05513427 125.64900388 184.72600924 126.95380848 182.45703125 129.01171875 C181.46703125 129.01171875 180.47703125 129.01171875 179.45703125 129.01171875 C179.45703125 166.96171875 179.45703125 204.91171875 179.45703125 244.01171875 C180.77703125 244.34171875 182.09703125 244.67171875 183.45703125 245.01171875 C183.45703125 246.33171875 183.45703125 247.65171875 183.45703125 249.01171875 C182.97284225 249.48752884 182.48865326 249.96333893 181.98979187 250.4535675 C179.88822579 252.58994664 180.02982333 253.98106844 179.93286133 256.94213867 C179.89304642 257.94294968 179.85323151 258.94376068 179.81221008 259.97489929 C179.78394638 261.0531044 179.75568268 262.13130951 179.7265625 263.2421875 C179.66634163 264.90052361 179.66634163 264.90052361 179.60490417 266.59236145 C179.47962813 270.127668 179.37435571 273.66325237 179.26953125 277.19921875 C179.18816437 279.59444609 179.10549837 281.98962967 179.02148438 284.38476562 C178.81824944 290.25999188 178.63143891 296.13556995 178.45703125 302.01171875 C176.14703125 302.34171875 173.83703125 302.67171875 171.45703125 303.01171875 C171.45703125 287.83171875 171.45703125 272.65171875 171.45703125 257.01171875 C168.81703125 257.01171875 166.17703125 257.01171875 163.45703125 257.01171875 C162.2115672 254.52079064 162.68027345 253.60091142 163.45703125 251.01171875 C165.76703125 251.01171875 168.07703125 251.01171875 170.45703125 251.01171875 C170.78703125 210.42171875 171.11703125 169.83171875 171.45703125 128.01171875 C170.13703125 127.35171875 168.81703125 126.69171875 167.45703125 126.01171875 C167.12703125 125.68171875 166.79703125 125.35171875 166.45703125 125.01171875 C165.04375178 124.8555132 163.62348535 124.76115702 162.203125 124.6953125 C161.34912109 124.65341797 160.49511719 124.61152344 159.61523438 124.56835938 C158.71740234 124.52904297 157.81957031 124.48972656 156.89453125 124.44921875 C155.99283203 124.40603516 155.09113281 124.36285156 154.16210938 124.31835938 C151.9272464 124.21193733 149.69226817 124.10991887 147.45703125 124.01171875 C147.71806641 125.17767578 147.71806641 125.17767578 147.984375 126.3671875 C148.46008374 129.02879754 148.29951822 130.48425783 147.45703125 133.01171875 C145.80703125 133.01171875 144.15703125 133.01171875 142.45703125 133.01171875 C141.45703125 131.01171875 141.45703125 131.01171875 141.45703125 125.01171875 C134.52703125 124.68171875 127.59703125 124.35171875 120.45703125 124.01171875 C120.45703125 126.65171875 120.45703125 129.29171875 120.45703125 132.01171875 C118.70060545 139.08655272 113.21266974 143.94743017 107.45703125 148.01171875 C95.02697242 155.2192005 82.61398344 157.2468696 68.45703125 157.01171875 C68.46750488 158.26307617 68.47797852 159.51443359 68.48876953 160.80371094 C68.5249789 165.44788755 68.54793521 170.09205168 68.56689453 174.73632812 C68.57694995 176.7461151 68.5905961 178.75588745 68.60791016 180.765625 C68.63217849 183.65498463 68.64351896 186.54415077 68.65234375 189.43359375 C68.66266632 190.33164734 68.67298889 191.22970093 68.68362427 192.15496826 C68.68377533 192.99553772 68.68392639 193.83610718 68.68408203 194.70214844 C68.68852325 195.43939148 68.69296448 196.17663452 68.69754028 196.93621826 C68.40982176 199.41911851 67.84401181 200.92907299 66.45703125 203.01171875 C63.63810338 204.89486376 61.40523795 205.25847291 58.05566406 205.23876953 C56.76477875 205.23854294 56.76477875 205.23854294 55.44781494 205.23831177 C54.52788757 205.2279892 53.60796021 205.21766663 52.66015625 205.20703125 C51.71138611 205.20420135 50.76261597 205.20137146 49.78509521 205.19845581 C46.75894486 205.18727323 43.73309195 205.16217205 40.70703125 205.13671875 C38.65365011 205.12668647 36.60026433 205.11756105 34.546875 205.109375 C29.51681271 205.08734016 24.48697239 205.05282337 19.45703125 205.01171875 C19.2720105 203.18447266 19.2720105 203.18447266 19.08325195 201.3203125 C18.91254943 199.69658541 18.74155404 198.07288909 18.5703125 196.44921875 C18.49010864 195.64935547 18.40990479 194.84949219 18.32727051 194.02539062 C16.88345153 180.51758537 12.45166256 166.00702115 1.95703125 156.82421875 C-1.50386844 155.03196712 -3.95110845 154.48290273 -7.76171875 153.8984375 C-8.84388672 153.72916748 -9.92605469 153.55989746 -11.04101562 153.38549805 C-11.86666016 153.26215088 -12.69230469 153.13880371 -13.54296875 153.01171875 C-13.6884442 148.94959663 -13.77710101 144.88814588 -13.85546875 140.82421875 C-13.89736328 139.67373047 -13.93925781 138.52324219 -13.98242188 137.33789062 C-13.99853516 136.22607422 -14.01464844 135.11425781 -14.03125 133.96875 C-14.05743408 132.9475708 -14.08361816 131.9263916 -14.1105957 130.87426758 C-13.31658003 126.87003801 -11.70303296 125.5480999 -8.54296875 123.01171875 C-5.81190453 122.54073021 -3.71638165 122.37356476 -0.9987793 122.4440918 C-0.2567778 122.44336166 0.48522369 122.44263153 1.24971008 122.44187927 C3.69066698 122.44534959 6.12969102 122.48418025 8.5703125 122.5234375 C10.2670945 122.53276771 11.96389 122.53988284 13.66069031 122.5448761 C18.1178635 122.56392981 22.57421676 122.6130159 27.03106689 122.668396 C31.5824474 122.71962401 36.13396092 122.74239768 40.68554688 122.76757812 C49.60973445 122.82113676 58.53331456 122.90642937 67.45703125 123.01171875 C67.45703125 121.69171875 67.45703125 120.37171875 67.45703125 119.01171875 C42.70703125 119.01171875 17.95703125 119.01171875 -7.54296875 119.01171875 C-8.53296875 115.54671875 -8.53296875 115.54671875 -9.54296875 112.01171875 C-11.40609419 109.70144321 -12.72869408 109.14743119 -15.62890625 108.6640625 C-19.81731295 108.39272054 -21.99820551 108.66707262 -25.60546875 110.94921875 C-27.86247806 114.51674959 -28.27372278 116.69879256 -28.03125 120.85546875 C-27.22554312 124.41347035 -25.449247 125.94503199 -22.54296875 128.01171875 C-20.88784613 128.39831673 -19.22094169 128.74098698 -17.54296875 129.01171875 C-17.46665689 166.84061905 -17.65543048 204.66121955 -18.00653076 242.48858643 C-18.06249244 248.57134932 -18.11609978 254.65413257 -18.16972637 260.73691642 C-18.2910814 274.49521218 -18.41576928 288.25347586 -18.54296875 302.01171875 C-19.20296875 302.01171875 -19.86296875 302.01171875 -20.54296875 302.01171875 C-20.87296875 254.82171875 -21.20296875 207.63171875 -21.54296875 159.01171875 C-32.32895103 171.59536475 -35.31447575 184.6564372 -37.0769043 200.75463867 C-37.16481735 201.55487961 -37.25273041 202.35512054 -37.3433075 203.17961121 C-37.40919571 203.7842067 -37.47508392 204.38880219 -37.54296875 205.01171875 C-43.57522814 205.11071436 -49.60701302 205.18324782 -55.63989258 205.23144531 C-57.69140868 205.25154074 -59.74286764 205.27882199 -61.79418945 205.31347656 C-64.745749 205.36208544 -67.69655023 205.38470827 -70.6484375 205.40234375 C-71.56320358 205.42298889 -72.47796967 205.44363403 -73.42045593 205.46490479 C-77.34263336 205.46628185 -80.02487574 205.24635164 -83.63085938 203.61328125 C-86.58822586 199.58957118 -86.16457993 195.86194689 -86.03125 190.99609375 C-86.02417526 190.02512756 -86.01710052 189.05416138 -86.0098114 188.05377197 C-85.98184508 184.95563381 -85.91910143 181.85930967 -85.85546875 178.76171875 C-85.83038882 176.66018237 -85.80757512 174.55861763 -85.78710938 172.45703125 C-85.73201082 167.30789588 -85.64572168 162.16011475 -85.54296875 157.01171875 C-86.8103186 157.03999756 -86.8103186 157.03999756 -88.10327148 157.06884766 C-103.7222125 157.27084064 -120.41276267 153.70906023 -132.140625 142.5546875 C-137.33855204 136.83551987 -138.15868475 132.42689569 -137.85546875 124.80859375 C-137.18479603 118.80607292 -134.14046038 114.86726986 -129.87890625 110.8125 C-118.65722201 102.16166985 -103.89015915 97.92824655 -89.8359375 97.9921875 C-89.03051514 97.99500732 -88.22509277 97.99782715 -87.39526367 98.00073242 C-86.78400635 98.00435791 -86.17274902 98.0079834 -85.54296875 98.01171875 C-85.56391602 96.73006836 -85.58486328 95.44841797 -85.60644531 94.12792969 C-85.67885541 89.37202124 -85.72477235 84.61616151 -85.76269531 79.85986328 C-85.78280844 77.8015117 -85.81010272 75.74321723 -85.84472656 73.68505859 C-85.89325758 70.72609362 -85.91594041 67.76788414 -85.93359375 64.80859375 C-85.95423889 63.88866638 -85.97488403 62.96873901 -85.99615479 62.02093506 C-85.9974682 58.27971926 -85.94081801 55.74083391 -84.13085938 52.42382812 C-80.08873975 50.2182036 -76.27517421 50.51945148 -71.74609375 50.62109375 C-70.79732361 50.62675354 -69.84855347 50.63241333 -68.87103271 50.63824463 C-65.84449539 50.66061266 -62.81914746 50.71081017 -59.79296875 50.76171875 C-57.73960045 50.78178318 -55.68621356 50.80003405 -53.6328125 50.81640625 C-48.60240719 50.86047894 -43.57288954 50.92950984 -38.54296875 51.01171875 C-38.54854294 50.407939 -38.55411713 49.80415924 -38.55986023 49.18208313 C-38.56636345 47.98267342 -38.56636345 47.98267342 -38.57299805 46.7590332 C-38.57857224 45.96962845 -38.58414642 45.18022369 -38.58988953 44.36689758 C-38.29966495 29.79913381 -33.24667472 14.49272862 -22.7109375 4.2265625 C-16.2693267 -1.50986144 -8.32024428 -3.23352043 0 0 Z " fill="#4C4A79" transform="translate(152.54296875,0.98828125)"/>
<path d="M0 0 C0.33 40.92 0.66 81.84 1 124 C-0.65 124.66 -2.3 125.32 -4 126 C-6.19836468 127.64877351 -6.90538418 128.3883763 -7.328125 131.12109375 C-7.28945312 132.26771484 -7.28945312 132.26771484 -7.25 133.4375 C-7.23453125 134.19933594 -7.2190625 134.96117187 -7.203125 135.74609375 C-7.00366333 137.95935109 -6.72367528 139.89767751 -6 142 C-1.52186167 144.63419902 3.26051376 144.60877472 8.25 143.5 C10.94629862 141.43296136 10.94629862 141.43296136 13 134 C70.09 134 127.18 134 186 134 C186 134.66 186 135.32 186 136 C185.09037254 136.01093689 185.09037254 136.01093689 184.16236877 136.02209473 C177.81741183 136.10609605 171.47530205 136.24501004 165.13208008 136.41503906 C162.76876383 136.47128925 160.40507725 136.51380273 158.04125977 136.54199219 C154.63105874 136.58509563 151.22526939 136.67848546 147.81640625 136.78125 C146.76916885 136.78370728 145.72193146 136.78616455 144.64295959 136.78869629 C137.4410547 137.07261806 133.88578779 138.95755771 128.85430908 144.12004089 C121.15772682 151.92308735 106.05046657 153.91295727 95.6171875 154.578125 C94.37308105 154.6596582 93.12897461 154.74119141 91.84716797 154.82519531 C90.90760254 154.88288086 89.96803711 154.94056641 89 155 C89.02618408 156.24612061 89.05236816 157.49224121 89.0793457 158.77612305 C89.1699656 163.40712471 89.22729228 168.0380483 89.2746582 172.66967773 C89.2997755 174.67274156 89.33387595 176.67571398 89.37719727 178.6784668 C89.43797188 181.56061366 89.46623732 184.44154721 89.48828125 187.32421875 C89.51408768 188.21711105 89.5398941 189.11000336 89.56648254 190.029953 C89.5668602 190.87044693 89.56723785 191.71094086 89.56762695 192.5769043 C89.57873001 193.31192673 89.58983307 194.04694916 89.60127258 194.804245 C88.89509401 197.38310053 87.93061863 199.18867705 85.93941212 201.00030041 C81.20689471 203.43974878 75.38696841 202.67862602 70.18530273 202.63110352 C68.76249296 202.63624405 67.33968956 202.64352634 65.91690063 202.65278625 C62.05937295 202.67129035 58.202537 202.65836926 54.34503818 202.63869596 C50.30700811 202.62230282 46.26902163 202.63112312 42.23097229 202.63621521 C35.45115108 202.64073493 28.67160588 202.6248728 21.8918457 202.59692383 C14.05332119 202.56485938 6.21529409 202.56489294 -1.6232658 202.5821386 C-9.16517154 202.59800033 -16.70689489 202.59127331 -24.24879265 202.57420158 C-27.4580769 202.56732877 -30.66721506 202.5683658 -33.87649727 202.57574654 C-37.65482815 202.583406 -41.43259261 202.5712952 -45.21082687 202.54389763 C-46.59754568 202.53700951 -47.98431736 202.53692048 -49.37103462 202.54411316 C-51.26331756 202.55279743 -53.15566716 202.53442625 -55.04786682 202.5146637 C-56.10696542 202.51185678 -57.16606401 202.50904985 -58.25725651 202.50615788 C-61.77816548 201.85639394 -62.93897187 200.90903634 -65 198 C-65.50336456 195.23884583 -65.50336456 195.23884583 -65.50793457 192.00317383 C-65.52485352 190.16089706 -65.52485352 190.16089706 -65.54211426 188.28140259 C-65.53433731 186.92327645 -65.52614465 185.56515264 -65.51757812 184.20703125 C-65.52299919 182.77451872 -65.53012176 181.34201177 -65.53881836 179.90951538 C-65.55705693 176.02103894 -65.54998224 172.1329869 -65.53730202 168.24450302 C-65.52717701 164.17576705 -65.5365663 160.10706748 -65.54284668 156.03833008 C-65.55012456 149.20550002 -65.54053178 142.37284287 -65.52148438 135.54003906 C-65.49971525 127.6396324 -65.50676653 119.73963864 -65.52879 111.83924198 C-65.54694007 105.05695339 -65.54950428 98.27478912 -65.53903532 91.49248409 C-65.53279818 87.44134185 -65.53197067 83.3903937 -65.54518127 79.33926392 C-65.55673358 75.53060192 -65.54872606 71.7224724 -65.52560425 67.91386795 C-65.52031374 66.51585398 -65.52183687 65.11779521 -65.53065491 63.71979904 C-65.54157851 61.81215766 -65.52545335 59.90441839 -65.50793457 57.99682617 C-65.50642647 56.92905441 -65.50491837 55.86128265 -65.50336456 54.76115417 C-64.87621402 51.32098482 -63.71207763 50.13736206 -61 48 C-58.88653564 47.51898193 -58.88653564 47.51898193 -56.59863281 47.54589844 C-55.3077475 47.54635162 -55.3077475 47.54635162 -53.99078369 47.54681396 C-52.61089264 47.57778168 -52.61089264 47.57778168 -51.203125 47.609375 C-50.25435486 47.61503479 -49.30558472 47.62069458 -48.32806396 47.62652588 C-45.30152664 47.64889391 -42.27617871 47.69909142 -39.25 47.75 C-37.1966317 47.77006443 -35.14324481 47.7883153 -33.08984375 47.8046875 C-28.05943844 47.84876019 -23.02992079 47.91779109 -18 48 C-18.00516632 47.39540451 -18.01033264 46.79080902 -18.01565552 46.16789246 C-18.01967377 45.36765152 -18.02369202 44.56741058 -18.02783203 43.74291992 C-18.03299835 42.95269943 -18.03816467 42.16247894 -18.04348755 41.34831238 C-17.77406736 26.79971647 -12.70165551 12.02078196 -2.63671875 1.4765625 C-1 0 -1 0 0 0 Z " fill="#6089C2" transform="translate(132,180)"/>
<path d="M0 0 C3 1.5625 3 1.5625 5 4 C5.33 6.31 5.66 8.62 6 11 C30.75 11 55.5 11 81 11 C81 12.32 81 13.64 81 15 C55.92 15 30.84 15 5 15 C4.34 16.32 3.68 17.64 3 19 C2.01 19.33 1.02 19.66 0 20 C0 35.51 0 51.02 0 67 C3.3 67 6.6 67 10 67 C18.95273741 70.37839147 23.55741334 76.87641296 28 85 C32.05806362 94.01791914 34.12180279 102.94233192 34.046875 112.8203125 C34.03672363 114.56078857 34.03672363 114.56078857 34.02636719 116.33642578 C34.01766602 117.21540527 34.00896484 118.09438477 34 119 C35.27641357 118.97381592 36.55282715 118.94763184 37.86791992 118.9206543 C42.6107424 118.83004584 47.35348862 118.77271173 52.09692383 118.7253418 C54.14848706 118.70022194 56.19996101 118.66611964 58.2512207 118.62280273 C61.20286091 118.56203998 64.1533165 118.53376508 67.10546875 118.51171875 C68.02023483 118.48591232 68.93500092 118.4601059 69.87748718 118.43351746 C74.13023182 118.43165105 76.41564668 118.63556459 80.08789062 120.92578125 C82.77522966 125.24638558 82.63252003 128.6851756 82.48828125 133.67578125 C82.48120651 134.6009404 82.47413177 135.52609955 82.46684265 136.47929382 C82.43892815 139.42453003 82.37619557 142.36784173 82.3125 145.3125 C82.2874133 147.31312352 82.26460078 149.31377694 82.24414062 151.31445312 C82.18911108 156.21037316 82.10285901 161.10486068 82 166 C82.99290039 166.05260986 83.98580078 166.10521973 85.00878906 166.15942383 C98.90183128 166.9508316 111.08935002 169.29548787 123 177 C123.60457031 177.37769531 124.20914063 177.75539063 124.83203125 178.14453125 C129.4999799 181.48890965 132.29878669 186.61784286 134 192 C134.11388885 194.67211459 134.03859842 197.32390005 134 200 C117.26690118 200.11681254 100.53393466 200.20497774 83.80052662 200.25906086 C76.0308602 200.28484034 68.26144715 200.31998557 60.49194336 200.37719727 C53.71985842 200.42704057 46.94795697 200.45929289 40.17569369 200.47044247 C36.58987283 200.47695983 33.0045769 200.49227088 29.41892433 200.52865028 C25.41552085 200.56893848 21.41302936 200.56994888 17.40942383 200.56762695 C15.62702049 200.59459152 15.62702049 200.59459152 13.80860901 200.62210083 C5.89594987 200.57231021 5.89594987 200.57231021 1.7598877 197.93029785 C-0.37855975 194.36967976 -0.67385422 191.58558248 -0.56762695 187.54760742 C-0.56872215 186.44923553 -0.56872215 186.44923553 -0.56983948 185.32867432 C-0.56636958 182.92017254 -0.52754128 180.51363051 -0.48828125 178.10546875 C-0.47895089 176.43110714 -0.47183583 174.75673184 -0.46684265 173.08235168 C-0.44779016 168.68435704 -0.39870522 164.28719356 -0.34332275 159.88952637 C-0.29209205 155.39847049 -0.2693205 150.90727975 -0.24414062 146.41601562 C-0.19058406 137.61029649 -0.10529342 128.80525176 0 120 C-1.32 120 -2.64 120 -4 120 C-4 144.42 -4 168.84 -4 194 C-4.33 194 -4.66 194 -5 194 C-5.02387056 179.56460474 -5.04123419 165.12921223 -5.05181217 150.69380093 C-5.0568647 143.9839295 -5.06382109 137.27407324 -5.07543945 130.56420898 C-5.13704645 94.02768568 -4.82221833 57.52709164 -4 21 C-5.10472656 20.87625 -6.20945313 20.7525 -7.34765625 20.625 C-11 20 -11 20 -13.4375 18 C-15.56302872 13.91898486 -15.83418522 10.51441415 -15 6 C-11.07768808 -0.27569908 -7.01075103 -0.84758648 0 0 Z " fill="#618AC2" transform="translate(139,109)"/>
<path d="M0 0 C0.97096619 0.00565979 1.94193237 0.01131958 2.94232178 0.01715088 C6.04017669 0.03952189 9.13687033 0.08972027 12.234375 0.140625 C14.33592078 0.16068903 16.43748472 0.17893997 18.5390625 0.1953125 C23.6879467 0.2393892 28.83596403 0.30842242 33.984375 0.390625 C34.06576218 0.96179047 34.14714935 1.53295593 34.23100281 2.12142944 C34.60670398 4.74044898 34.98884927 7.35849028 35.37109375 9.9765625 C35.49899292 10.8749585 35.62689209 11.77335449 35.75866699 12.69897461 C37.6314523 25.43857483 41.56074056 38.95244474 51.984375 47.390625 C57.47478012 50.91518591 60.05950471 51.390625 66.984375 51.390625 C66.984375 59.640625 66.984375 67.890625 66.984375 76.390625 C70.284375 76.390625 73.584375 76.390625 76.984375 76.390625 C79.91860695 78.18709354 81.45642855 79.3347321 82.984375 82.390625 C83.36030652 87.37171759 83.1608911 90.44736364 79.984375 94.390625 C77.05541903 96.75006175 75.23755997 97.35897688 71.484375 97.828125 C67.30309868 97.30546546 65.74822745 96.56092633 62.984375 93.390625 C62.654375 91.080625 62.324375 88.770625 61.984375 86.390625 C4.564375 86.390625 -52.855625 86.390625 -112.015625 86.390625 C-112.345625 88.370625 -112.675625 90.350625 -113.015625 92.390625 C-114.90684293 94.64788511 -116.38855349 96.07708924 -119.015625 97.390625 C-123.98630282 97.7657705 -127.06714002 97.54941299 -131.015625 94.390625 C-133.55222093 90.20166904 -133.84192445 86.16953211 -133.015625 81.390625 C-130.890625 78.390625 -130.890625 78.390625 -128.015625 76.390625 C-125.045625 75.895625 -125.045625 75.895625 -122.015625 75.390625 C-122.015625 50.970625 -122.015625 26.550625 -122.015625 1.390625 C-120.695625 1.390625 -119.375625 1.390625 -118.015625 1.390625 C-118.01197937 2.32134827 -118.00833374 3.25207153 -118.00457764 4.21099854 C-117.96764167 12.98078326 -117.90988463 21.75021639 -117.83172226 30.51973343 C-117.79220724 35.02830719 -117.76003864 39.53668446 -117.74462891 44.04541016 C-117.72948863 48.39635536 -117.69509047 52.74676053 -117.64731598 57.09746552 C-117.63247492 58.75759946 -117.62458242 60.41781049 -117.62374115 62.07801056 C-117.62137781 64.40317913 -117.59435244 66.72684755 -117.56152344 69.05175781 C-117.5665538 69.7386821 -117.57158417 70.42560638 -117.57676697 71.13334656 C-117.50880091 74.2430337 -117.26525196 76.06041597 -115.36916351 78.56858063 C-112.33602936 80.91674913 -110.65169451 80.88439112 -106.84002686 80.87164307 C-104.93859421 80.87989105 -104.93859421 80.87989105 -102.99874878 80.88830566 C-101.59649279 80.87414996 -100.19424063 80.85961073 -98.79199219 80.84472656 C-97.31358877 80.84359812 -95.83518312 80.84423188 -94.35678101 80.84649658 C-90.34455284 80.84764481 -86.33280246 80.82411827 -82.32068539 80.79620075 C-78.12732804 80.77120505 -73.9339599 80.76884655 -69.74053955 80.76409912 C-61.80030719 80.75166393 -53.86029497 80.71883505 -45.92015958 80.67870116 C-36.88036665 80.63400029 -27.84056324 80.61200066 -18.80068731 80.59191942 C-0.2055417 80.55010284 18.38939895 80.4797403 36.984375 80.390625 C36.83779505 78.93992738 36.68710822 77.4896443 36.53466797 76.03955078 C36.4511911 75.23188263 36.36771423 74.42421448 36.28170776 73.59207153 C35.55914136 68.24220263 32.71807343 64.75859961 28.55859375 61.4765625 C17.41515349 54.06861777 6.28084712 51.04430887 -6.81640625 49.3359375 C-7.51012329 49.24449463 -8.20384033 49.15305176 -8.9185791 49.05883789 C-10.61745654 48.83505119 -12.3165221 48.61269336 -14.015625 48.390625 C-14.11450589 42.19763858 -14.18709986 36.00511168 -14.23535156 29.81152344 C-14.25546626 27.70467118 -14.28276167 25.59787475 -14.31738281 23.49121094 C-14.36590668 20.46275053 -14.38859516 17.43502822 -14.40625 14.40625 C-14.42689514 13.46444885 -14.44754028 12.52264771 -14.46881104 11.55230713 C-14.47010824 7.77128646 -14.42447347 5.15122019 -12.6171875 1.7890625 C-8.51026515 -0.41856243 -4.58691279 -0.10054932 0 0 Z " fill="#52CEB5" transform="translate(257.015625,227.609375)"/>
<path d="M0 0 C3.36179774 1.44077046 5.59156268 3.24750021 8 6 C8 6.66 8 7.32 8 8 C18.89 8.495 18.89 8.495 30 9 C30.66 7.35 31.32 5.7 32 4 C34.86922605 0.91006425 37.97734649 0.30352699 42.0390625 -0.06640625 C45.92167279 0.06507657 48.05022066 2.14847369 50.8125 4.625 C52.68778921 8.37557841 52.77138352 11.90246738 52 16 C50.59810302 18.63728513 49.26897799 19.94208973 47 22 C46.01 22 45.02 22 44 22 C44 59.95 44 97.9 44 137 C45.32 137.33 46.64 137.66 48 138 C48 139.32 48 140.64 48 142 C47.515811 142.47581009 47.03162201 142.95162018 46.53276062 143.44184875 C44.43119454 145.57822789 44.57279208 146.96934969 44.47583008 149.93041992 C44.43601517 150.93123093 44.39620026 151.93204193 44.35517883 152.96318054 C44.32691513 154.04138565 44.29865143 155.11959076 44.26953125 156.23046875 C44.229384 157.33602615 44.18923676 158.44158356 44.14787292 159.5806427 C44.02259688 163.11594925 43.91732446 166.65153362 43.8125 170.1875 C43.73113312 172.58272734 43.64846712 174.97791092 43.56445312 177.37304688 C43.36121819 183.24827313 43.17440766 189.1238512 43 195 C40.69 195.33 38.38 195.66 36 196 C36 180.82 36 165.64 36 150 C33.36 150 30.72 150 28 150 C26.75453595 147.50907189 27.2232422 146.58919267 28 144 C30.31 144 32.62 144 35 144 C35.33 103.41 35.66 62.82 36 21 C34.02 20.01 34.02 20.01 32 19 C31.01 16.03 31.01 16.03 30 13 C-26.76 12.34 -83.52 11.68 -142 11 C-142 10.34 -142 9.68 -142 9 C-94.81 8.67 -47.62 8.34 1 8 C-0.98 6.515 -0.98 6.515 -3 5 C-1.125 1.125 -1.125 1.125 0 0 Z " fill="#494774" transform="translate(288,108)"/>
<path d="M0 0 C1.32 0 2.64 0 4 0 C4.00364563 0.93072327 4.00729126 1.86144653 4.01104736 2.82037354 C4.04798333 11.59015826 4.10574037 20.35959139 4.18390274 29.12910843 C4.22341776 33.63768219 4.25558636 38.14605946 4.27099609 42.65478516 C4.28613637 47.00573036 4.32053453 51.35613553 4.36830902 55.70684052 C4.38315008 57.36697446 4.39104258 59.02718549 4.39188385 60.68738556 C4.39424719 63.01255413 4.42127256 65.33622255 4.45410156 67.66113281 C4.4490712 68.3480571 4.44404083 69.03498138 4.43885803 69.74272156 C4.50578547 72.80488787 4.8752394 74.79471183 6.47409058 77.42555237 C10.24329801 79.77497142 13.59827456 79.56371151 17.96044922 79.5300293 C18.87009241 79.53878051 19.7797356 79.54753172 20.71694374 79.55654812 C23.74639179 79.58109523 26.775152 79.57755317 29.8046875 79.57421875 C31.94137662 79.58639901 34.07805596 79.60042097 36.21472168 79.61618042 C40.75114812 79.64609465 45.28739615 79.66400101 49.82391357 79.67214966 C56.85492416 79.6848677 63.88562864 79.72318896 70.91650391 79.76733398 C77.86395001 79.81015516 84.81138078 79.85226761 91.75888062 79.88545227 C109.30149254 79.97103221 126.83602717 80.19467022 144.375 80.5625 C146.57405537 80.60704555 148.77311133 80.65156182 150.97216797 80.69604492 C155.64823881 80.79213052 160.32415177 80.89365301 165 81 C165 82.32 165 83.64 165 85 C113.85 85 62.7 85 10 85 C9.67 86.98 9.34 88.96 9 91 C7.10878207 93.25726011 5.62707151 94.68646424 3 96 C-1.97067782 96.3751455 -5.05151502 96.15878799 -9 93 C-11.53659593 88.81104404 -11.82629945 84.77890711 -11 80 C-8.875 77 -8.875 77 -6 75 C-3.03 74.505 -3.03 74.505 0 74 C0 49.58 0 25.16 0 0 Z " fill="#5FBBB0" transform="translate(135,229)"/>
<path d="M0 0 C1.65 0 3.3 0 5 0 C5 57.09 5 114.18 5 173 C3.35 173.33 1.7 173.66 0 174 C0 158.82 0 143.64 0 128 C-2.64 128 -5.28 128 -8 128 C-9.24546405 125.50907189 -8.7767578 124.58919267 -8 122 C-5.69 122 -3.38 122 -1 122 C-0.67 81.74 -0.34 41.48 0 0 Z " fill="#53528D" transform="translate(324,130)"/>
<path d="M0 0 C3 1.5625 3 1.5625 5 4 C5.33 6.31 5.66 8.62 6 11 C30.75 11 55.5 11 81 11 C81 12.32 81 13.64 81 15 C55.92 15 30.84 15 5 15 C4.34 16.32 3.68 17.64 3 19 C-1.01858595 21.6790573 -4.27641721 21.69610694 -9 21 C-11.87029869 19.20606332 -13.49131638 18.01736724 -15 15 C-15.55512815 10.36786507 -15.6364242 7.01827873 -13.125 3 C-9.15553406 -0.73596795 -5.246161 -0.6342509 0 0 Z " fill="#FCFCFD" transform="translate(139,109)"/>
<path d="M0 0 C1.32 0 2.64 0 4 0 C4.00142502 0.92628204 4.00285004 1.85256409 4.00431824 2.80691528 C4.02216571 11.54668753 4.06383107 20.28595443 4.13209057 29.02548409 C4.16634607 33.51835905 4.19146827 38.01089452 4.19555664 42.50390625 C4.19984274 46.84196776 4.2283306 51.17926359 4.27343178 55.51708603 C4.28639694 57.16998709 4.29071791 58.82297983 4.28615379 60.47592545 C4.2812404 62.79614643 4.30736778 65.11413584 4.34057617 67.43408203 C4.34723801 68.75312531 4.35389984 70.07216858 4.36076355 71.43118286 C5.18808424 76.05006258 6.82948873 77.61830998 10 81 C11.05278711 84.83020573 10.32797514 88.24565718 8.75 91.875 C6.83591553 94.19924543 5.86897932 95.12336743 3 96 C-1.97294029 96.45208548 -5.05329969 96.15736025 -9 93 C-11.53659593 88.81104404 -11.82629945 84.77890711 -11 80 C-8.875 77 -8.875 77 -6 75 C-3.03 74.505 -3.03 74.505 0 74 C0 49.58 0 25.16 0 0 Z " fill="#FDFDFE" transform="translate(135,229)"/>
<path d="M0 0 C0.99 0 1.98 0 3 0 C3 37.95 3 75.9 3 115 C4.32 115.33 5.64 115.66 7 116 C7 117.32 7 118.64 7 120 C6.515811 120.47581009 6.03162201 120.95162018 5.53276062 121.44184875 C3.43119454 123.57822789 3.57279208 124.96934969 3.47583008 127.93041992 C3.43601517 128.93123093 3.39620026 129.93204193 3.35517883 130.96318054 C3.31278328 132.5804882 3.31278328 132.5804882 3.26953125 134.23046875 C3.229384 135.33602615 3.18923676 136.44158356 3.14787292 137.5806427 C3.02259688 141.11594925 2.91732446 144.65153362 2.8125 148.1875 C2.73113312 150.58272734 2.64846712 152.97791092 2.56445312 155.37304688 C2.36121819 161.24827313 2.17440766 167.1238512 2 173 C1.34 173 0.68 173 0 173 C0 115.91 0 58.82 0 0 Z " fill="#2F2F34" transform="translate(329,130)"/>
<path d="M0 0 C4.28624777 0.11385346 6.83133361 0.21951866 10.5625 2.50390625 C13.08448151 5.26995048 13.46394999 6.15124367 13.75 9.94140625 C13.48118885 13.90637077 12.96797825 15.56520912 10.5 18.62890625 C7.57104403 20.988343 5.75318497 21.59725813 2 22.06640625 C-2.18127632 21.54374671 -3.73614755 20.79920758 -6.5 17.62890625 C-6.83 15.31890625 -7.16 13.00890625 -7.5 10.62890625 C-13.77 10.62890625 -20.04 10.62890625 -26.5 10.62890625 C-26.5 9.30890625 -26.5 7.98890625 -26.5 6.62890625 C-25.18644531 6.61472656 -23.87289063 6.60054688 -22.51953125 6.5859375 C-20.78381949 6.53902637 -19.04814348 6.49077904 -17.3125 6.44140625 C-16.44818359 6.43560547 -15.58386719 6.42980469 -14.69335938 6.42382812 C-9.16951441 6.25344393 -9.16951441 6.25344393 -4.69921875 3.11328125 C-2.5 0.62890625 -2.5 0.62890625 0 0 Z " fill="#FBFDFD" transform="translate(326.5,303.37109375)"/>
<path d="M0 0 C3.36179774 1.44077046 5.59156268 3.24750021 8 6 C8 6.66 8 7.32 8 8 C18.89 8.495 18.89 8.495 30 9 C30 9.66 30 10.32 30 11 C-26.76 11 -83.52 11 -142 11 C-142 10.34 -142 9.68 -142 9 C-94.81 8.67 -47.62 8.34 1 8 C-0.98 6.515 -0.98 6.515 -3 5 C-1.125 1.125 -1.125 1.125 0 0 Z " fill="#2F2F35" transform="translate(288,108)"/>
<path d="M0 0 C1.32 0 2.64 0 4 0 C4 32.34 4 64.68 4 98 C2.68 98 1.36 98 0 98 C0 65.66 0 33.32 0 0 Z " fill="#4A6FA5" transform="translate(135,130)"/>
<path d="M0 0 C56.76 0 113.52 0 172 0 C172 0.66 172 1.32 172 2 C152.30589907 2.95467821 132.69222555 3.07929364 112.98264527 2.89946485 C108.9909605 2.86436671 104.99922549 2.8362828 101.00749207 2.80735779 C93.49662134 2.751916 85.98581342 2.69044471 78.47500962 2.62663645 C69.90384518 2.55412625 61.33263142 2.48859765 52.76140749 2.42356598 C35.17420711 2.28997645 17.58708567 2.14791026 0 2 C0 1.34 0 0.68 0 0 Z " fill="#2C2C2C" transform="translate(146,314)"/>
<path d="M0 0 C3.36179774 1.44077046 5.59156268 3.24750021 8 6 C8 6.66 8 7.32 8 8 C18.89 8.495 18.89 8.495 30 9 C30 9.66 30 10.32 30 11 C13.83 11 -2.34 11 -19 11 C-18.67 10.34 -18.34 9.68 -18 9 C-11.73 8.67 -5.46 8.34 1 8 C-0.32 7.01 -1.64 6.02 -3 5 C-1.125 1.125 -1.125 1.125 0 0 Z " fill="#2B2B2B" transform="translate(288,108)"/>
<path d="M0 0 C5.33333333 -0.35555556 5.33333333 -0.35555556 7.875 1 C9.70488947 4.25313684 9.18128355 7.31390109 9 11 C7.02 11 5.04 11 3 11 C3 9.35 3 7.7 3 6 C1.68 5.67 0.36 5.34 -1 5 C-0.67 3.35 -0.34 1.7 0 0 Z " fill="#000000" transform="translate(287,200)"/>
<path d="M0 0 C0.33 1.98 0.66 3.96 1 6 C-0.32 6 -1.64 6 -3 6 C-3.33 7.65 -3.66 9.3 -4 11 C-5.65 11 -7.3 11 -9 11 C-9.36180905 3.64321608 -9.36180905 3.64321608 -7.875 1 C-5.21065116 -0.42098605 -2.96508915 -0.19767261 0 0 Z " fill="#000000" transform="translate(353,200)"/>
<path d="M0 0 C1.65 0.99 3.3 1.98 5 3 C2.92856799 7.03384128 1.03384128 8.92856799 -3 11 C-3.99 10.01 -4.98 9.02 -6 8 C-4.55746343 4.63408134 -2.66735273 2.48952921 0 0 Z " fill="#000000" transform="translate(291,139)"/>
<path d="M0 0 C1.5625 1.25 1.5625 1.25 3 3 C3 5.0625 3 5.0625 2 7 C-0.89111788 8.52164099 -2.71823412 9 -6 9 C-6.33 7.35 -6.66 5.7 -7 4 C-4.69 2.68 -2.38 1.36 0 0 Z " fill="#000000" transform="translate(278,149)"/>
<path d="M0 0 C3.73487777 0.4979837 5.81237635 0.87491756 9 3 C8.34 4.98 7.68 6.96 7 9 C2.545 7.02 2.545 7.02 -2 5 C-1.34 3.35 -0.68 1.7 0 0 Z " fill="#000000" transform="translate(273,100)"/>
<path d="M0 0 C0.33 1.98 0.66 3.96 1 6 C-0.47831221 6.19412181 -1.95769316 6.38012131 -3.4375 6.5625 C-4.26121094 6.66691406 -5.08492188 6.77132812 -5.93359375 6.87890625 C-6.61550781 6.91886719 -7.29742187 6.95882812 -8 7 C-9 6 -9 6 -9.0625 3.4375 C-9.041875 2.633125 -9.02125 1.82875 -9 1 C-5.94152152 0.45627049 -3.11227195 0 0 0 Z " fill="#000000" transform="translate(264,155)"/>
<path d="M0 0 C3.36179774 1.44077046 5.59156268 3.24750021 8 6 C8 6.66 8 7.32 8 8 C5.3125 8.75 5.3125 8.75 2 9 C-0.875 7.0625 -0.875 7.0625 -3 5 C-1.125 1.125 -1.125 1.125 0 0 Z " fill="#000000" transform="translate(288,108)"/>
<path d="M0 0 C2.97 0.495 2.97 0.495 6 1 C5.01 3.97 4.02 6.94 3 10 C1.02 9.34 -0.96 8.68 -3 8 C-2.01 5.36 -1.02 2.72 0 0 Z " fill="#000000" transform="translate(339,232)"/>
<path d="M0 0 C1.98 0 3.96 0 6 0 C6 2.97 6 5.94 6 9 C4.02 9 2.04 9 0 9 C0 6.03 0 3.06 0 0 Z " fill="#000000" transform="translate(391,178)"/>
<path d="M0 0 C1.98 0 3.96 0 6 0 C6 2.97 6 5.94 6 9 C4.02 9 2.04 9 0 9 C0 6.03 0 3.06 0 0 Z " fill="#000000" transform="translate(391,147)"/>
<path d="M0 0 C1.98 0 3.96 0 6 0 C6 2.97 6 5.94 6 9 C4.02 9 2.04 9 0 9 C0 6.03 0 3.06 0 0 Z " fill="#000000" transform="translate(391,132)"/>
<path d="M0 0 C1.2065625 0.0309375 1.2065625 0.0309375 2.4375 0.0625 C3.18676071 3.72555234 3.6755014 6.48605152 2.4375 10.0625 C0.7875 10.0625 -0.8625 10.0625 -2.5625 10.0625 C-4.05356457 7.08037087 -3.68191467 4.34640342 -3.5625 1.0625 C-2.5625 0.0625 -2.5625 0.0625 0 0 Z " fill="#020203" transform="translate(297.5625,123.9375)"/>
<path d="M0 0 C1.98 0 3.96 0 6 0 C6 2.97 6 5.94 6 9 C4.02 9 2.04 9 0 9 C0 6.03 0 3.06 0 0 Z " fill="#000000" transform="translate(391,101)"/>
<path d="M0 0 C1.98 0 3.96 0 6 0 C6 2.97 6 5.94 6 9 C4.02 9 2.04 9 0 9 C0 6.03 0 3.06 0 0 Z " fill="#000000" transform="translate(391,86)"/>
<path d="M0 0 C2.09230769 4.43076923 2.09230769 4.43076923 1.625 7.3125 C1.41875 7.869375 1.2125 8.42625 1 9 C-0.32 9.33 -1.64 9.66 -3 10 C-6 4.375 -6 4.375 -6 1 C-3 0 -3 0 0 0 Z " fill="#000000" transform="translate(301,232)"/>
<path d="M0 0 C0.33 2.97 0.66 5.94 1 9 C-0.65 9.33 -2.3 9.66 -4 10 C-6 4.375 -6 4.375 -6 1 C-3.92446352 0.4465236 -2.15634036 0 0 0 Z " fill="#000000" transform="translate(297,217)"/>
<path d="M0 0 C2.97 0.33 5.94 0.66 9 1 C8.67 2.98 8.34 4.96 8 7 C3.545 6.01 3.545 6.01 -1 5 C-0.67 3.35 -0.34 1.7 0 0 Z " fill="#000000" transform="translate(257,96)"/>
<path d="M0 0 C3.29279709 0.31865778 4.86535088 1.54515351 7 4 C6.34 5.65 5.68 7.3 5 9 C2.625 8.3125 2.625 8.3125 0 7 C-1.3125 4.375 -1.3125 4.375 -2 2 C-1.34 1.34 -0.68 0.68 0 0 Z " fill="#000000" transform="translate(305,245)"/>
<path d="M0 0 C2.97 0.495 2.97 0.495 6 1 C5.34 3.97 4.68 6.94 4 10 C2.35 9.67 0.7 9.34 -1 9 C-0.67 6.03 -0.34 3.06 0 0 Z " fill="#000000" transform="translate(343,217)"/>
<path d="M0 0 C2.33294775 -0.04241723 4.66702567 -0.04092937 7 0 C8 1 8 1 8.0625 3.5625 C8.041875 4.366875 8.02125 5.17125 8 6 C5.36 6 2.72 6 0 6 C-1.24546405 3.50907189 -0.7767578 2.58919267 0 0 Z " fill="#000000" transform="translate(316,252)"/>
<path d="M0 0 C2.64 0 5.28 0 8 0 C8 1.98 8 3.96 8 6 C5.36 6 2.72 6 0 6 C0 4.02 0 2.04 0 0 Z " fill="#000000" transform="translate(358,200)"/>
<path d="M0 0 C2.64 0 5.28 0 8 0 C8 1.98 8 3.96 8 6 C5.36 6 2.72 6 0 6 C0 4.02 0 2.04 0 0 Z " fill="#000000" transform="translate(260,200)"/>
<path d="M0 0 C1.98 0 3.96 0 6 0 C6 2.64 6 5.28 6 8 C4.02 8 2.04 8 0 8 C0 5.36 0 2.72 0 0 Z " fill="#000000" transform="translate(391,163)"/>
<path d="M0 0 C1.98 0 3.96 0 6 0 C6 2.64 6 5.28 6 8 C4.02 8 2.04 8 0 8 C0 5.36 0 2.72 0 0 Z " fill="#000000" transform="translate(391,117)"/>
<path d="M0 0 C1.98 0 3.96 0 6 0 C6 2.64 6 5.28 6 8 C4.02 8 2.04 8 0 8 C0 5.36 0 2.72 0 0 Z " fill="#000000" transform="translate(391,71)"/>
<path d="M0 0 C2.97 0 5.94 0 9 0 C9 1.65 9 3.3 9 5 C6.03 5 3.06 5 0 5 C0 3.35 0 1.7 0 0 Z " fill="#000000" transform="translate(369,52)"/>
<path d="M0 0 C2.97 0 5.94 0 9 0 C9 1.65 9 3.3 9 5 C6.03 5 3.06 5 0 5 C0 3.35 0 1.7 0 0 Z " fill="#000000" transform="translate(354,52)"/>
<path d="M0 0 C2.97 0 5.94 0 9 0 C9 1.65 9 3.3 9 5 C6.03 5 3.06 5 0 5 C0 3.35 0 1.7 0 0 Z " fill="#000000" transform="translate(323,52)"/>
<path d="M0 0 C2.97 0 5.94 0 9 0 C9 1.65 9 3.3 9 5 C6.03 5 3.06 5 0 5 C0 3.35 0 1.7 0 0 Z " fill="#000000" transform="translate(308,52)"/>
<path d="M0 0 C2.97 0 5.94 0 9 0 C9 1.65 9 3.3 9 5 C6.03 5 3.06 5 0 5 C0 3.35 0 1.7 0 0 Z " fill="#000000" transform="translate(277,52)"/>
<path d="M0 0 C2.97 0 5.94 0 9 0 C9 1.65 9 3.3 9 5 C6.03 5 3.06 5 0 5 C0 3.35 0 1.7 0 0 Z " fill="#000000" transform="translate(262,52)"/>
<path d="M0 0 C1.98 0 3.96 0 6 0 C6 2.64 6 5.28 6 8 C1.125 7.125 1.125 7.125 0 6 C-0.04080783 4.00041636 -0.04254356 1.99954746 0 0 Z " fill="#000000" transform="translate(391,193)"/>
<path d="M0 0 C2.31 0 4.62 0 7 0 C7 1.98 7 3.96 7 6 C4.69 6 2.38 6 0 6 C0 4.02 0 2.04 0 0 Z " fill="#000000" transform="translate(372,200)"/>
<path d="M0 0 C2.31 0 4.62 0 7 0 C7 1.98 7 3.96 7 6 C4.69 6 2.38 6 0 6 C0 4.02 0 2.04 0 0 Z " fill="#000000" transform="translate(274,200)"/>
<path d="M0 0 C0 2.64 0 5.28 0 8 C-1.98 8 -3.96 8 -6 8 C-6 6.02 -6 4.04 -6 2 C-2.25 0 -2.25 0 0 0 Z " fill="#000000" transform="translate(397,56)"/>
<path d="M0 0 C1.98 0 3.96 0 6 0 C6 1.98 6 3.96 6 6 C3.69 6 1.38 6 -1 6 C-1.33 5.34 -1.66 4.68 -2 4 C-1.0625 1.875 -1.0625 1.875 0 0 Z " fill="#000000" transform="translate(249,200)"/>
<path d="M0 0 C1.98 0 3.96 0 6 0 C6.33 1.98 6.66 3.96 7 6 C4.69 6 2.38 6 0 6 C0 4.02 0 2.04 0 0 Z " fill="#000000" transform="translate(385,200)"/>
<path d="M0 0 C1.65 0 3.3 0 5 0 C5 2.64 5 5.28 5 8 C3.35 8 1.7 8 0 8 C0 5.36 0 2.72 0 0 Z " fill="#000000" transform="translate(243,167)"/>
<path d="M0 0 C1.65 0 3.3 0 5 0 C5 2.64 5 5.28 5 8 C3.35 8 1.7 8 0 8 C0 5.36 0 2.72 0 0 Z " fill="#000000" transform="translate(243,82)"/>
<path d="M0 0 C1.65 0 3.3 0 5 0 C5 2.64 5 5.28 5 8 C3.35 8 1.7 8 0 8 C0 5.36 0 2.72 0 0 Z " fill="#000000" transform="translate(243,69)"/>
<path d="M0 0 C2.64 0 5.28 0 8 0 C8 1.65 8 3.3 8 5 C5.36 5 2.72 5 0 5 C0 3.35 0 1.7 0 0 Z " fill="#000000" transform="translate(339,52)"/>
<path d="M0 0 C2.64 0 5.28 0 8 0 C8 1.65 8 3.3 8 5 C5.36 5 2.72 5 0 5 C0 3.35 0 1.7 0 0 Z " fill="#000000" transform="translate(293,52)"/>
<path d="M0 0 C1.98 0.66 3.96 1.32 6 2 C5.67 3.98 5.34 5.96 5 8 C3.35 8 1.7 8 0 8 C0 5.36 0 2.72 0 0 Z " fill="#000000" transform="translate(243,56)"/>
<path d="M0 0 C2.0625 0.4375 2.0625 0.4375 4 1 C4 2.32 4 3.64 4 5 C1.5 7.25 1.5 7.25 -1 9 C-1.09765625 2.84765625 -1.09765625 2.84765625 -1 1 C-0.67 0.67 -0.34 0.34 0 0 Z " fill="#030303" transform="translate(332,245)"/>
<path d="M0 0 C1.65 0 3.3 0 5 0 C5 2.31 5 4.62 5 7 C3.35 7 1.7 7 0 7 C0 4.69 0 2.38 0 0 Z " fill="#000000" transform="translate(243,181)"/>
<path d="M0 0 C1.65 0 3.3 0 5 0 C5.33 1.65 5.66 3.3 6 5 C3 7 3 7 0 7 C0 4.69 0 2.38 0 0 Z " fill="#000000" transform="translate(243,194)"/>
<path d="M0 0 C2.64 0 5.28 0 8 0 C7.34 1.65 6.68 3.3 6 5 C4.02 5 2.04 5 0 5 C0 3.35 0 1.7 0 0 Z " fill="#000000" transform="translate(385,52)"/>
<path d="M0 0 C2.64 0 5.28 0 8 0 C8 1.65 8 3.3 8 5 C6.02 5 4.04 5 2 5 C1.34 3.35 0.68 1.7 0 0 Z " fill="#000000" transform="translate(247,52)"/>
<path d="M0 0 C1.65 0 3.3 0 5 0 C5 1.98 5 3.96 5 6 C3.35 6 1.7 6 0 6 C0 4.02 0 2.04 0 0 Z " fill="#000000" transform="translate(243,157)"/>
<path d="M0 0 C1.98 0 3.96 0 6 0 C6 1.65 6 3.3 6 5 C4.02 5 2.04 5 0 5 C0 3.35 0 1.7 0 0 Z " fill="#000000" transform="translate(243,95)"/>
</svg>
